<svg xmlns="http://www.w3.org/2000/svg" fill="none" viewBox="0 0 190 46">
  <g clip-path="url(#IUmQQUZIpa)">
    <path d="M61.813 36.977c-.081.325-.244.651-.326.977.082-.326.245-.652.326-.977z" fill="#000"/>
    <path d="M16.125 41.535c-1.222.244-2.443.244-3.746.163-4.887-.407-9.121-3.176-11.728-7.167.082.163.082.407.163.57 2.606 3.828 6.678 6.434 11.483 6.841a9.93 9.93 0 002.2 0c.814-.081 1.71-.244 2.524-.488-.244 0-.57.081-.896.081z" fill="#7CD0EB"/>
    <path d="M51.354 11.271l-.825 1.112 1.111.825.825-1.112-1.111-.825zm15.159 3.626l-.68.915.85.631.68-.915-.85-.631zm-13.47-1.954l-.463 1.815 1.815.463.463-1.815-1.815-.463zm4.456 2.19l-1.821.437.437 1.822 1.822-.438-.438-1.821zm6.3-1.153l-.937 1.622 1.622.936.937-1.622-1.622-.937zm-14.026.643l-.242.947.947.242.242-.947-.947-.242zm12.966-3.179l-.242.947.947.241.242-.947-.947-.241zm-5.321 1.734l-.242.947.947.242.242-.947-.947-.242zM33.11 26.498l-.241.947.947.242.241-.947-.947-.242zm25.995-15.394l-.322 1.263 1.262.322.322-1.262-1.262-.322zm-.037 3.032l-.322 1.262 1.262.322.322-1.262-1.262-.322zm6.514-7.706l-1.235.625.625 1.235 1.236-.625-.626-1.236zm10.651 7.36l-1.017.515.478.944 1.017-.515-.478-.944zm-9.348-4.417l-1.226 1.416 1.416 1.226L68.3 10.6l-1.416-1.226zm6.54 2.031l-1.226 1.416 1.416 1.226 1.226-1.416-1.416-1.226zM62.394 8.16l-.64.738.739.64.64-.739-.74-.64zm12.598.171l-.64.74.74.639.639-.739-.739-.64zm-4.534 1.204l-.64.738.74.64.639-.739-.739-.64zm1.748-2.465l-.853.985.986.853.853-.985-.986-.853zm-1.803 5.797l-.853.985.985.852.853-.985-.985-.852zm1.68-7.757l-.161 1.046 1.046.161.162-1.046-1.047-.161zm-.286-5.13l-.748.63.63.747.747-.63-.63-.747zm5.277 17.228l-.136.886.885.136.137-.885-.886-.137zM75.013 2.66l-.562 1.442 1.442.561.562-1.442-1.442-.561zm1.729 3.186l-1.03.248.248 1.03 1.03-.248-.248-1.03zM68.33 2.232l-.818.534.534.818.819-.534-.534-.818zM39.852 20.151l-.322 1.263 1.262.322.322-1.262-1.262-.323zm-4.251 5.259l-.322 1.262 1.263.322.322-1.263-1.263-.322z" fill="#0053AA"/>
    <path d="M3.258 39.584a16.054 16.054 0 007.655 2.443c3.258.244 6.27-.407 8.877-1.71-.244.163-.57.244-.814.326-2.037.814-4.317 1.14-6.597.977-4.887-.407-9.121-3.176-11.728-7.167.57 1.873 1.466 3.583 2.607 5.13z" fill="url(#IUmQQUZIpb)"/>
    <path d="M.733 34.532c2.606 3.99 6.76 6.76 11.727 7.166 2.28.163 4.561-.163 6.597-.977-1.222.407-2.443.652-3.91.489-6.27-.489-10.912-5.946-10.423-12.216.488-6.271 5.945-10.913 12.216-10.425 1.384.082 2.768.489 3.99 1.059l1.71.814c1.222-5.456 6.027-9.61 11.972-10.587v-.081h-.163c-4.968-.407-9.773 1.466-13.193 5.049-1.303-.407-2.606-.733-3.99-.814C8.47 13.276.732 19.872 0 28.668a17.6 17.6 0 00.733 5.864z" fill="url(#IUmQQUZIpc)"/>
    <path d="M16.125 41.535c-1.222.244-2.443.244-3.746.163-4.887-.407-9.121-3.176-11.728-7.167.082.163.082.407.163.57 2.606 3.828 6.678 6.434 11.483 6.841a9.93 9.93 0 002.2 0c.814-.081 1.71-.244 2.524-.488-.244 0-.57.081-.896.081z" fill="#7CD0EB"/>
    <path d="M61.976 29.483c-1.792-3.828-5.05-6.515-8.877-6.84-2.932-.245-5.62.895-7.9 2.93 1.222-.57 2.688-.895 4.154-.895 5.7 0 9.528 3.91 9.528 8.714 0 4.805-4.316 8.714-9.691 8.714a11.63 11.63 0 01-2.362-.244c1.303.814 2.77 1.384 4.398 1.466 4.235.326 8.225-2.28 10.669-6.353.325-.977.488-1.873.57-2.931a14.275 14.275 0 00-.489-4.561z" fill="url(#IUmQQUZIpd)"/>
    <path d="M62.302 31.11s0 .08 0 0c.08.08.08.08 0 0z" fill="url(#IUmQQUZIpe)"/>
    <path d="M45.2 25.655c2.198-2.036 4.967-3.176 7.899-2.931 3.828.325 7.085 3.013 8.877 6.84a12.935 12.935 0 00-8.958-8.877c-3.014.652-5.783 2.444-7.819 4.968l2.2-.57-2.2.57z" fill="url(#IUmQQUZIpf)"/>
    <path d="M53.018 20.61c-3.014.732-5.62 2.443-7.656 4.886v.081a5.68 5.68 0 01.815-.651c1.873-2.036 4.316-3.502 7.003-4.154-.081-.163-.081-.163-.162-.163z" fill="#7CD0EB"/>
    <path d="M51.226 43.329c-1.629-.163-3.095-.652-4.48-1.547-1.22.895-2.361 1.71-3.583 2.361 1.63.978 3.502 1.548 5.457 1.71 6.026.49 11.483-3.339 13.275-8.876-2.525 4.153-6.434 6.76-10.67 6.352z" fill="url(#IUmQQUZIpg)"/>
    <path d="M51.226 43.087c-1.547-.163-3.013-.652-4.235-1.385-.081.082-.163.082-.163.163 1.385.896 2.85 1.385 4.48 1.547 4.153.326 7.98-2.117 10.505-6.108.082-.162.163-.325.163-.57-2.525 4.072-6.515 6.678-10.75 6.353z" fill="#7CD0EB"/>
    <path d="M22.64 20.442l1.14-1.466c2.444-3.176 6.271-4.886 10.262-4.56 5.05.407 9.366 3.99 10.506 8.958l.57 2.28c2.036-2.524 4.805-4.316 7.818-5.049-.814-.244-1.629-.407-2.443-.407a9.191 9.191 0 00-2.117 0c-2.28-5.783-7.656-9.936-14.008-10.425h.163v.082c-5.864.977-10.669 5.13-11.89 10.587z" fill="url(#IUmQQUZIph)"/>
    <path d="M46.34 25.9c-7.656 6.027-17.673 14.008-18.325 14.578-3.99 3.176-7.736 5.863-13.274 5.375a16.144 16.144 0 01-11.483-6.271c2.199 1.384 4.805 2.28 7.655 2.525 3.258.244 6.27-.408 8.877-1.71 1.71-.815 3.339-2.037 5.212-3.503.407-.325 4.805-3.827 9.854-7.818l-.244 1.059 1.792.488.488-1.791-1.303-.326c2.607-2.117 5.457-4.316 7.982-6.352.162.407.325.896.407 1.384l.733 2.932.651-.163.163-.081c.244-.163.489-.245.815-.326zm7.655-7.167l.489.652c-.245.163-.57.407-.896.733-.082 0-.163-.082-.245-.082h-.162c-.815-.244-1.71-.407-2.525-.407a6.595 6.595 0 00-1.792 0c-.163-.407-.326-.814-.57-1.14 1.466-1.222 2.688-2.117 3.258-2.606l1.629 2.036-.163.814.895.244.082-.244zm-1.71-.163l-.896-.244-.245.896.896.244.245-.896z" fill="url(#IUmQQUZIpi)"/>
    <path d="M63.442 18.817l-1.222-.489.326-.895-.814-.978-.082.163-.896-.326.082-.081c-.244.163-.57.407-.896.733l.977.407-.488 1.222-1.303-.652.325-.814a107.02 107.02 0 00-2.606 2.117l.652.57-.652.733-.651-.57.488-.57c-.488.407-1.058.814-1.628 1.303 1.465.652 2.85 1.629 3.99 2.77 2.362-1.874 4.235-3.34 5.05-3.992l-.652-.814v.163zM58.8 21.505l-.896-.245.244-.896.896.245-.244.896zm3.339-1.466l-1.303-.326.326-1.303 1.303.326-.326 1.303zm-13.03 5.293c-6.76 5.375-13.845 10.995-14.415 11.483-1.874 1.548-3.584 2.77-5.213 3.502-.081 0-.163.082-.244.082-2.606 2.036-5.05 3.909-7.981 4.805.977.325 2.036.488 3.176.57 5.457.407 9.203-2.2 13.275-5.375.57-.489 9.528-7.574 17.02-13.52-1.465-.977-3.257-1.547-5.293-1.547h-.325zm-6.923 8.389l-1.466-1.222 1.222-1.466 1.466 1.222-1.222 1.466zm1.222-3.095l.651-.733.733.651-.651.733-.733-.651zm1.791 2.687l-.977-.896.896-.977.977.896-.896.977zm1.385-2.687l-.978-.896.896-.977.978.896-.896.977z" fill="url(#IUmQQUZIpj)"/>
    <path d="M55.786 27.694c1.14 1.059 1.955 2.525 2.28 4.072-5.456 4.398-10.342 8.307-10.83 8.714-3.991 3.176-7.737 5.864-13.275 5.375-1.06-.081-2.118-.244-3.177-.57 2.932-.896 5.375-2.687 7.982-4.805.08 0 .162-.081.244-.081 1.71-.815 3.339-2.036 5.212-3.502.57-.489 5.864-4.642 11.564-9.203zm17.592-8.714l.325.407c-.244.244-.651.57-1.14.896l-.244-.407-1.71.814.407.815c-.896.733-2.036 1.628-3.176 2.524l.488-.896-.977-.488-.489.977.896.489c-1.71 1.303-3.583 2.85-5.456 4.397-.57-1.465-1.303-2.85-2.362-4.072a919.719 919.719 0 0110.424-8.225l.407.814.733-.407 1.06 1.303-.327.163.57 1.222.57-.326zm-7.086 5.293l-.733-1.302-1.303.651.733 1.303 1.303-.652zm.652-2.28l-.652-.326-.326.652.652.326.326-.652zm1.954-.814l-.651-.896-.896.651.651.896.896-.651zm2.688-2.28l-.407-.815-.815.407.407.815.815-.408z" fill="url(#IUmQQUZIpk)"/>
    <path d="M77.45 44.63c-2.118 0-3.747-.733-5.05-2.2-1.303-1.465-1.873-3.42-1.873-5.944 0-2.525.652-4.398 1.873-5.783 1.222-1.465 2.932-2.117 5.05-2.117 1.547 0 3.013.489 4.153 1.466 1.14.977 1.873 2.28 2.036 3.746h-.896c-.163-1.221-.733-2.28-1.791-3.176-1.06-.896-2.118-1.303-3.502-1.303-1.792 0-3.34.651-4.398 1.954-1.059 1.304-1.629 3.014-1.629 5.213 0 2.199.57 3.99 1.629 5.375 1.059 1.384 2.524 1.954 4.398 1.954 1.384 0 2.606-.407 3.583-1.14.977-.733 1.547-1.792 1.71-3.013h.896c-.163 1.466-.814 2.687-1.954 3.583-1.14.896-2.525 1.385-4.235 1.385zm8.144-.244V28.75h.814v15.636h-.814zm11.564-1.384c-.896 1.058-2.117 1.547-3.665 1.547-1.547 0-2.687-.489-3.664-1.547-.896-1.06-1.385-2.444-1.385-4.235 0-1.792.489-3.177 1.385-4.235.896-1.059 2.117-1.548 3.664-1.548 1.548 0 2.688.489 3.665 1.548.896 1.059 1.385 2.443 1.385 4.235 0 1.791-.489 3.176-1.385 4.234zm-6.678-.57c.733.895 1.792 1.384 3.013 1.384 1.222 0 2.28-.489 3.014-1.385.733-.895 1.14-2.117 1.14-3.664 0-1.548-.407-2.77-1.14-3.665-.733-.896-1.792-1.385-3.014-1.385-1.221 0-2.28.489-3.013 1.385-.733.896-1.14 2.117-1.14 3.665 0 1.547.326 2.769 1.14 3.664zm18.731-9.285v11.239h-.814v-2.443c-.244.733-.733 1.384-1.466 1.873a4.308 4.308 0 01-2.443.733c-1.222 0-2.199-.407-2.932-1.14-.733-.733-1.14-1.71-1.14-3.014v-7.33h.814v7.168c0 1.058.326 1.954.896 2.524.57.57 1.466.896 2.525.896 1.058 0 1.954-.326 2.687-1.059.733-.733 1.059-1.629 1.059-2.85v-6.76l.814.163zm6.76 11.398c-1.385 0-2.606-.57-3.421-1.629-.895-1.059-1.303-2.443-1.303-4.235 0-1.791.489-3.094 1.303-4.235.815-1.14 2.036-1.628 3.421-1.628.977 0 1.954.325 2.687.895.733.57 1.303 1.385 1.548 2.28v-7.329h.814v15.637h-.814v-3.014c-.245.896-.815 1.71-1.548 2.28-.733.57-1.71.978-2.687.978zm.081-10.832c-1.221 0-2.199.489-2.932 1.385-.732.896-1.14 2.117-1.14 3.665 0 1.547.408 2.687 1.14 3.665.733.895 1.711 1.384 2.932 1.384 1.222 0 2.199-.489 2.932-1.384.733-.978 1.14-2.118 1.14-3.665 0-1.548-.407-2.688-1.14-3.665-.733-.896-1.71-1.385-2.932-1.385zm16.777-.647l-3.176 11.32h-2.606l-4.154-15.636h2.932l2.688 11.809h.081l3.176-11.809h2.444l3.176 11.809h.081l2.688-11.809h2.931l-4.153 15.636h-2.606l-3.176-11.32h-.326zm18.08 7.901h2.524c-.162 1.058-.733 1.954-1.628 2.606-.896.651-2.118.977-3.421.977-1.71 0-3.095-.57-4.072-1.629-.977-1.059-1.466-2.525-1.466-4.316 0-1.792.489-3.258 1.466-4.398.977-1.14 2.28-1.629 3.991-1.629 1.71 0 2.932.489 3.909 1.547.977 1.06 1.466 2.444 1.466 4.154v.896h-8.063v.163c0 .895.244 1.629.815 2.198.488.57 1.221.815 2.117.815.651 0 1.14-.163 1.629-.407.488-.245.57-.489.733-.977zm-2.688-6.19c-.733 0-1.384.244-1.873.814-.489.57-.814 1.222-.814 1.955h5.375c0-.814-.326-1.466-.733-2.036-.407-.57-1.14-.733-1.955-.733zm10.425 9.773c-1.141 0-2.036-.326-2.769-.977-.733-.652-1.059-1.466-1.059-2.525s.407-1.792 1.14-2.443c.733-.652 1.792-.896 3.258-.978l3.013-.163v-.814c0-.57-.163-1.059-.57-1.384-.407-.326-.896-.489-1.548-.489-.651 0-1.14.163-1.547.407-.407.245-.651.652-.733 1.14h-2.524c.081-1.058.488-1.954 1.384-2.687.896-.733 2.036-1.059 3.502-1.059 1.466 0 2.525.326 3.42 1.059.896.733 1.303 1.629 1.303 2.769v7.9h-2.606v-1.792h-.081c-.326.651-.814 1.059-1.466 1.466-.652.407-1.384.57-2.117.57zm.814-2.036c.733 0 1.466-.245 1.955-.652.488-.488.814-1.058.814-1.71v-.896l-2.688.163c-.651 0-1.14.163-1.547.489-.407.325-.57.651-.57 1.059 0 .407.163.814.57 1.14.407.325.896.407 1.466.407zm7.655 1.872V28.75h2.688v15.636h-2.688zm5.783-14.176h2.687v2.688h2.199v2.118h-2.199v5.945c0 .489.082.814.326 1.059.244.244.57.325 1.059.325.325 0 .57 0 .733-.08V44.3c-.326.082-.815.082-1.385.082-1.221 0-2.117-.245-2.687-.733-.489-.49-.815-1.303-.815-2.362v-6.271h-1.629V32.98h1.629l.082-2.77z" fill="#0053AA"/>
    <path d="M179.657 44.386V28.75h2.688v6.108h.081c.326-.733.733-1.222 1.385-1.629.651-.407 1.384-.57 2.198-.57 1.222 0 2.281.407 2.932 1.14.652.733 1.059 1.792 1.059 3.176v7.411h-2.687v-6.84c0-.815-.163-1.466-.571-1.874-.407-.407-.977-.651-1.791-.651-.815 0-1.466.244-1.955.733-.488.489-.733 1.221-.733 2.036v6.596h-2.606z" fill="#0D55A5"/>
  </g>
  <defs>
    <linearGradient id="IUmQQUZIpb" x1="20.137" y1="39.324" x2=".618" y2="37.767" gradientUnits="userSpaceOnUse">
      <stop offset=".07" stop-color="#2F7ABE"/>
      <stop offset=".32" stop-color="#72B4E0"/>
      <stop offset=".45" stop-color="#97D4F4"/>
      <stop offset=".5" stop-color="#8DCCEF"/>
      <stop offset=".57" stop-color="#75B7E3"/>
      <stop offset=".66" stop-color="#4D94CF"/>
      <stop offset=".77" stop-color="#1565B4"/>
      <stop offset=".81" stop-color="#0053AA"/>
    </linearGradient>
    <linearGradient id="IUmQQUZIpc" x1="34.942" y1="9.953" x2="2.968" y2="37.211" gradientUnits="userSpaceOnUse">
      <stop offset=".27" stop-color="#97D4F4"/>
      <stop offset=".36" stop-color="#C4E7F0"/>
      <stop offset=".38" stop-color="#98C6E0"/>
      <stop offset=".4" stop-color="#70A7D2"/>
      <stop offset=".43" stop-color="#4D8DC5"/>
      <stop offset=".45" stop-color="#3178BB"/>
      <stop offset=".48" stop-color="#1B67B3"/>
      <stop offset=".51" stop-color="#0B5BAE"/>
      <stop offset=".55" stop-color="#0255AB"/>
      <stop offset=".6" stop-color="#0053AA"/>
      <stop offset=".96" stop-color="#97D4F4"/>
    </linearGradient>
    <linearGradient id="IUmQQUZIpd" x1="53.852" y1="43.391" x2="53.852" y2="22.638" gradientUnits="userSpaceOnUse">
      <stop offset=".46" stop-color="#97D4F4"/>
      <stop offset=".51" stop-color="#8BCAEE"/>
      <stop offset=".59" stop-color="#6DB0DF"/>
      <stop offset=".7" stop-color="#3C86C7"/>
      <stop offset=".81" stop-color="#0053AA"/>
    </linearGradient>
    <linearGradient id="IUmQQUZIpe" x1="62.547" y1="31.092" x2="62.531" y2="31.09" gradientUnits="userSpaceOnUse">
      <stop offset=".13" stop-color="#97D4F4"/>
      <stop offset=".38" stop-color="#C2E5EF"/>
      <stop offset=".68" stop-color="#377CBD"/>
      <stop offset=".81" stop-color="#0053AA"/>
    </linearGradient>
    <linearGradient id="IUmQQUZIpf" x1="62.501" y1="25.336" x2="45.518" y2="23.981" gradientUnits="userSpaceOnUse">
      <stop offset=".13" stop-color="#97D4F4"/>
      <stop offset=".38" stop-color="#C2E5EF"/>
      <stop offset=".68" stop-color="#377CBD"/>
      <stop offset=".81" stop-color="#0053AA"/>
    </linearGradient>
    <linearGradient id="IUmQQUZIpg" x1="52.48" y1="45.902" x2="52.48" y2="36.968" gradientUnits="userSpaceOnUse">
      <stop offset=".19" stop-color="#0053AA"/>
      <stop offset=".3" stop-color="#3C86C7"/>
      <stop offset=".41" stop-color="#6DB0DF"/>
      <stop offset=".49" stop-color="#8BCAEE"/>
      <stop offset=".54" stop-color="#97D4F4"/>
    </linearGradient>
    <linearGradient id="IUmQQUZIph" x1="53.376" y1="18.672" x2="23.147" y2="16.261" gradientUnits="userSpaceOnUse">
      <stop offset=".29" stop-color="#97D4F4"/>
      <stop offset=".53" stop-color="#C2E5EF"/>
      <stop offset=".72" stop-color="#377CBD"/>
      <stop offset=".81" stop-color="#0053AA"/>
    </linearGradient>
    <linearGradient id="IUmQQUZIpi" x1="10.925" y1="47.421" x2="47.081" y2="11.265" gradientUnits="userSpaceOnUse">
      <stop offset=".19" stop-color="#0053AA"/>
      <stop offset=".23" stop-color="#1565B4"/>
      <stop offset=".34" stop-color="#4D94CF"/>
      <stop offset=".43" stop-color="#75B7E3"/>
      <stop offset=".5" stop-color="#8DCCEF"/>
      <stop offset=".55" stop-color="#97D4F4"/>
      <stop offset=".68" stop-color="#72B4E0"/>
      <stop offset=".93" stop-color="#2F7ABE"/>
    </linearGradient>
    <linearGradient id="IUmQQUZIpj" x1="25.477" y1="49.522" x2="60.17" y2="14.829" gradientUnits="userSpaceOnUse">
      <stop offset=".07" stop-color="#2F7ABE"/>
      <stop offset=".25" stop-color="#72B4E0"/>
      <stop offset=".35" stop-color="#97D4F4"/>
      <stop offset=".39" stop-color="#8DCCEF"/>
      <stop offset=".45" stop-color="#75B7E3"/>
      <stop offset=".53" stop-color="#4D94CF"/>
      <stop offset=".62" stop-color="#1565B4"/>
      <stop offset=".65" stop-color="#0053AA"/>
      <stop offset=".99" stop-color="#97D4F4"/>
    </linearGradient>
    <linearGradient id="IUmQQUZIpk" x1="35.12" y1="49.53" x2="69.776" y2="14.865" gradientUnits="userSpaceOnUse">
      <stop offset=".07" stop-color="#2F7ABE"/>
      <stop offset=".25" stop-color="#72B4E0"/>
      <stop offset=".35" stop-color="#97D4F4"/>
      <stop offset=".39" stop-color="#8DCCEF"/>
      <stop offset=".45" stop-color="#75B7E3"/>
      <stop offset=".53" stop-color="#4D94CF"/>
      <stop offset=".62" stop-color="#1565B4"/>
      <stop offset=".65" stop-color="#0053AA"/>
      <stop offset=".99" stop-color="#97D4F4"/>
    </linearGradient>
    <clipPath id="IUmQQUZIpa">
      <path fill="#fff" d="M0 0h190v45.851H0z"/>
    </clipPath>
  </defs>
</svg>
