<svg xmlns="http://www.w3.org/2000/svg" fill="none" viewBox="0 0 69 60">
  <g clip-path="url(#W_jryzrav4a)" fill="#D49E88">
    <path d="M65.094 0H3.837A3.83 3.83 0 000 3.815v47.247h26.152l-3.072 7.152A1.278 1.278 0 0024.248 60h20.427a1.286 1.286 0 001.176-1.786l-3.073-7.152H68.93V3.815A3.83 3.83 0 0065.094 0zM42.742 57.442H26.189l2.734-6.38h11.084l2.735 6.38zm23.638-8.93H2.55v-7.667h63.83v7.667zM2.55 38.295V3.815A1.279 1.279 0 013.838 2.55h61.257a1.279 1.279 0 011.286 1.264v34.48H2.55z"/>
    <path d="M34.465 47.233a2.558 2.558 0 10.015-5.116 2.558 2.558 0 00-.015 5.116zm10.144-31.702a8.93 8.93 0 00-17.737 0 3.836 3.836 0 00-2.616 3.624v11.473a3.837 3.837 0 003.83 3.837H43.41a3.83 3.83 0 003.814-3.837V19.155a3.83 3.83 0 00-2.616-3.624zm-8.865-5.322A6.402 6.402 0 0142 15.355H29.504a6.394 6.394 0 016.24-5.146zm8.93 20.42a1.273 1.273 0 01-1.264 1.278H28.078a1.28 1.28 0 01-1.272-1.279V19.155a1.286 1.286 0 011.272-1.287H43.41a1.28 1.28 0 011.265 1.287v11.473z"/>
  </g>
  <defs>
    <clipPath id="W_jryzrav4a">
      <path fill="#fff" d="M0 0h68.93v60H0z"/>
    </clipPath>
  </defs>
</svg>
