<svg xmlns="http://www.w3.org/2000/svg" fill="none" viewBox="0 0 42 60">
  <g clip-path="url(#Pry91NM57a)" fill="#D49E88">
    <path d="M17.144 56.786a3.214 3.214 0 100-6.428 3.214 3.214 0 000 6.428zm0-4.318a1.073 1.073 0 11-1.074 1.067 1.068 1.068 0 011.074-1.036v-.031z"/>
    <path d="M41.783 26.786h-8.569V3.22A3.216 3.216 0 0030.006 0H3.208A3.214 3.214 0 000 3.22v53.566A3.214 3.214 0 003.208 60h26.798a3.214 3.214 0 003.208-3.214V28.933h8.569v-2.147zm-10.71 30a1.08 1.08 0 01-1.067 1.073H3.208a1.054 1.054 0 01-1.061-1.073v-7.502h28.926v7.502zm0-9.667H2.147V3.22a1.067 1.067 0 011.06-1.073h26.8a1.073 1.073 0 011.066 1.073v23.566h-7.501v-3.22a1.08 1.08 0 00-1.549-.956l-8.575 4.318a1.073 1.073 0 000 1.918l8.575 4.282c.147.076.31.114.476.11.2.002.396-.051.567-.154a1.074 1.074 0 00.506-.913v-3.238h7.501v18.186zm-9.642-21.826v5.102l-5.108-2.548 5.108-2.554z"/>
  </g>
  <defs>
    <clipPath id="Pry91NM57a">
      <path fill="#fff" d="M0 0h41.783v60H0z"/>
    </clipPath>
  </defs>
</svg>
