<svg xmlns="http://www.w3.org/2000/svg" fill="none" viewBox="0 0 42 37">
  <g clip-path="url(#zcq0W8UJ0a)" fill="#0F5CBF">
    <path d="M39.662 0H2.338C1.72 0 1.128.247.689.688A2.38 2.38 0 000 2.352v29.136h15.935l-1.872 4.41a.8.8 0 00.348 1.006.78.78 0 00.368.096h12.442a.772.772 0 00.652-.355.793.793 0 00.064-.746l-1.867-4.41H42V2.351a2.376 2.376 0 00-.688-1.665A2.319 2.319 0 0039.662 0zm-13.62 35.423H15.958l1.666-3.935h6.754l1.666 3.935zm14.404-5.508H1.559v-4.727h38.887v4.728zm-38.887-6.3V2.352a.792.792 0 01.23-.553.774.774 0 01.549-.226h37.324a.767.767 0 01.552.225.784.784 0 01.232.554v21.263H1.559z"/>
    <path d="M21 29.127c.308 0 .61-.091.867-.264.257-.173.457-.419.576-.707a1.596 1.596 0 00-.335-1.72 1.542 1.542 0 00-1.699-.344 1.56 1.56 0 00-.7.58 1.592 1.592 0 00.192 1.991 1.55 1.55 0 001.099.464zm17.126-18.793c-.78-.131-4.743-.702-6.01 1.002-.39.587-.732 1.206-1.021 1.85-.753 1.522-1.872 3.83-2.93 3.526-.671-.19-.63-.907-.156-3.173.287-1.168.452-2.364.493-3.567 0-1.618-.659-2.72-1.765-2.95-1.563-.336-3.327 1.191-4.478 3.879-.7 1.623-1.46 2.266-1.895 2.18-.363-.077-.936-.865-.936-2.674 0-4.383-2.297-7.706-5.347-7.706a1.44 1.44 0 00-1.093.508c-.81.907-.618 2.797-.323 5.657.323 3.372.77 7.601-.618 10.497a3.225 3.225 0 01-.82 1.247c-.684-.494-1.45-4.111-1.79-5.68a24.035 24.035 0 00-.641-2.637 2.54 2.54 0 00-.559-.959 2.503 2.503 0 00-.91-.623c-1.424-.553-3.1.33-3.287.453a.797.797 0 00-.268 1.043.77.77 0 001.011.339c.39-.213 1.388-.58 1.993-.344a.932.932 0 01.56.648c.166.453.367 1.419.582 2.43.86 4.079 1.54 6.744 3.135 6.935.057.004.114.004.17 0 1.066 0 1.792-1.22 2.24-2.163 1.563-3.3 1.11-7.764.739-11.331-.175-1.704-.417-4.048-.108-4.406 2.127 0 3.793 2.683 3.793 6.11 0 2.316.833 3.934 2.172 4.215.636.132 2.262.1 3.637-3.095.95-2.217 2.195-3.087 2.736-2.965.323.068.529.621.529 1.41a15.927 15.927 0 01-.448 3.245c-.448 2.063-.923 4.397 1.259 5.018 2.27.644 3.699-2.235 4.738-4.342.26-.556.56-1.092.896-1.605.497-.666 2.942-.657 4.514-.394a.78.78 0 00.562-.15.79.79 0 00.177-1.078.78.78 0 00-.484-.327l-.049-.023z"/>
  </g>
  <defs>
    <clipPath id="zcq0W8UJ0a">
      <path fill="#fff" d="M0 0h42v37H0z"/>
    </clipPath>
  </defs>
</svg>
