<svg xmlns="http://www.w3.org/2000/svg" fill="none" viewBox="0 0 43 25">
  <g clip-path="url(#PFF67sSFwha)" fill="#79C4F2">
    <path d="M34.551 0a8.525 8.525 0 00-5.683 2.186 8.312 8.312 0 00-2.717 5.388H0v5.306h3.095v7.578h6.119V12.88h1.534v7.578h6.14V12.88h9.197v3.787c0 2.211.89 4.332 2.474 5.895a8.507 8.507 0 005.974 2.442c2.241 0 4.39-.878 5.975-2.442a8.282 8.282 0 002.474-5.895V8.333A8.291 8.291 0 0040.51 2.45 8.515 8.515 0 0034.55 0zM7.68 18.94H4.585v-6.06H7.68v6.06zm7.675 0h-3.069v-6.06h3.069v6.06zm26.106-2.273a6.774 6.774 0 01-2.023 4.822 6.957 6.957 0 01-4.887 1.997 6.957 6.957 0 01-4.886-1.997 6.774 6.774 0 01-2.024-4.822v-5.323H1.556V9.088h26.085v-.755c0-1.808.728-3.543 2.024-4.822a6.957 6.957 0 014.886-1.997c1.833 0 3.59.718 4.886 1.997a6.774 6.774 0 012.024 4.822v8.334z"/>
    <path d="M34.551 3.787a5.417 5.417 0 00-3.797 1.557 5.275 5.275 0 00-1.575 3.748v6.816c0 .696.14 1.386.41 2.03.27.643.666 1.228 1.165 1.721.5.493 1.092.883 1.744 1.15a5.438 5.438 0 004.115 0 5.384 5.384 0 001.744-1.15 5.25 5.25 0 001.575-3.751V9.091a5.274 5.274 0 00-1.578-3.751 5.417 5.417 0 00-3.803-1.554zm3.838 12.12a3.762 3.762 0 01-1.124 2.678 3.864 3.864 0 01-2.714 1.11 3.864 3.864 0 01-2.713-1.11 3.762 3.762 0 01-1.124-2.678V9.093c0-1.004.404-1.967 1.124-2.677a3.864 3.864 0 012.713-1.11c1.018 0 1.994.4 2.714 1.11a3.762 3.762 0 011.124 2.677v6.816z"/>
  </g>
  <defs>
    <clipPath id="PFF67sSFwha">
      <path fill="#fff" d="M0 0h43v25H0z"/>
    </clipPath>
  </defs>
</svg>
