<svg xmlns="http://www.w3.org/2000/svg" fill="none" viewBox="0 0 120 17">
  <path d="M6.922 16.044c-2.117 0-3.746-.733-5.049-2.2C.57 12.38 0 10.425 0 7.9s.652-4.398 1.873-5.783C3.095.652 4.805 0 6.923 0c1.547 0 3.013.489 4.153 1.466 1.14.977 1.873 2.28 2.036 3.746h-.896c-.163-1.221-.733-2.28-1.792-3.176C9.366 1.14 8.307.733 6.922.733c-1.791 0-3.339.651-4.397 1.955C1.465 3.99.895 5.7.895 7.9s.57 3.99 1.63 5.375c1.058 1.384 2.524 1.954 4.397 1.954 1.385 0 2.607-.407 3.584-1.14.977-.733 1.547-1.792 1.71-3.013h.896c-.163 1.466-.815 2.687-1.955 3.583-1.14.896-2.524 1.385-4.235 1.385zm8.144-.244V.162h.815v15.636h-.815zm11.565-1.385c-.896 1.059-2.117 1.547-3.665 1.547-1.547 0-2.687-.488-3.665-1.547-.895-1.059-1.384-2.443-1.384-4.235 0-1.792.488-3.176 1.384-4.235.896-1.059 2.118-1.547 3.665-1.547 1.547 0 2.688.488 3.665 1.547.896 1.059 1.384 2.443 1.384 4.235 0 1.792-.488 3.176-1.384 4.235zm-6.678-.57c.733.896 1.792 1.384 3.013 1.384 1.222 0 2.28-.488 3.014-1.384.732-.896 1.14-2.118 1.14-3.665 0-1.547-.408-2.769-1.14-3.665-.733-.896-1.792-1.384-3.014-1.384-1.221 0-2.28.488-3.013 1.384-.733.896-1.14 2.118-1.14 3.665 0 1.547.326 2.769 1.14 3.665zM38.684 4.56V15.8h-.814v-2.444c-.245.733-.733 1.385-1.466 1.873a4.309 4.309 0 01-2.443.733c-1.222 0-2.2-.407-2.932-1.14-.733-.733-1.14-1.71-1.14-3.013v-7.33h.814v7.167c0 1.059.326 1.954.896 2.525.57.57 1.466.895 2.524.895 1.06 0 1.955-.325 2.688-1.058.733-.733 1.059-1.63 1.059-2.85v-6.76l.814.163zm6.76 11.402c-1.385 0-2.606-.57-3.42-1.628-.897-1.06-1.304-2.444-1.304-4.235 0-1.792.489-3.095 1.303-4.235.815-1.14 2.036-1.63 3.42-1.63.978 0 1.955.327 2.688.897.733.57 1.303 1.384 1.547 2.28V.081h.815v15.637h-.815v-3.013c-.244.896-.814 1.71-1.547 2.28-.733.57-1.71.977-2.687.977zm.081-10.831c-1.221 0-2.199.488-2.932 1.384-.733.896-1.14 2.118-1.14 3.665 0 1.547.407 2.688 1.14 3.665.733.896 1.71 1.384 2.932 1.384s2.199-.488 2.932-1.384c.733-.977 1.14-2.118 1.14-3.665 0-1.547-.407-2.687-1.14-3.665-.733-.896-1.71-1.384-2.932-1.384zm16.777-.651L59.126 15.8H56.52L52.365.162h2.932l2.687 11.809h.082L61.243.162h2.443l3.176 11.81h.082L69.63.162h2.932L68.41 15.8h-2.606L62.627 4.48h-.325zm18.08 7.899h2.524c-.163 1.059-.733 1.955-1.629 2.606-.895.652-2.117.977-3.42.977-1.71 0-3.095-.57-4.072-1.628-.977-1.06-1.466-2.525-1.466-4.317 0-1.792.489-3.257 1.466-4.398.977-1.14 2.28-1.628 3.99-1.628 1.71 0 2.932.488 3.91 1.547.977 1.059 1.465 2.443 1.465 4.153v.896h-8.062v.163c0 .896.244 1.629.814 2.199.489.57 1.222.814 2.118.814.651 0 1.14-.162 1.629-.407.488-.244.57-.488.733-.977zm-2.688-6.19c-.733 0-1.385.245-1.873.815-.489.57-.815 1.221-.815 1.954h5.376c0-.814-.326-1.465-.734-2.036-.407-.57-1.14-.733-1.954-.733zm10.424 9.773c-1.14 0-2.036-.325-2.769-.977-.733-.651-1.058-1.466-1.058-2.525 0-1.058.407-1.791 1.14-2.443.733-.651 1.791-.896 3.257-.977l3.014-.163v-.814c0-.57-.163-1.06-.57-1.385-.408-.326-.896-.489-1.548-.489-.651 0-1.14.163-1.547.408-.407.244-.652.651-.733 1.14h-2.525c.082-1.059.489-1.955 1.385-2.688.896-.733 2.036-1.058 3.502-1.058 1.466 0 2.524.325 3.42 1.058.896.733 1.303 1.63 1.303 2.77v7.899h-2.606v-1.792h-.081c-.326.652-.815 1.059-1.466 1.466-.652.407-1.385.57-2.118.57zm.815-2.036c.733 0 1.466-.244 1.954-.651.489-.489.815-1.059.815-1.71v-.896l-2.688.163c-.651 0-1.14.162-1.547.488-.407.326-.57.652-.57 1.059 0 .407.163.814.57 1.14.407.326.896.407 1.466.407zm7.655 1.874V.162h2.688v15.636h-2.688zm5.782-14.171h2.688v2.687h2.199v2.118h-2.199v5.945c0 .489.081.814.326 1.059.244.244.57.325 1.058.325.326 0 .57 0 .733-.081v2.036c-.325.081-.814.081-1.384.081-1.222 0-2.118-.244-2.688-.732-.488-.49-.814-1.304-.814-2.362V6.434h-1.629V4.398h1.629l.081-2.77z" fill="#0053AA"/>
  <path d="M109.13 15.8V.162h2.687V6.27h.082c.326-.733.733-1.222 1.384-1.629.652-.407 1.385-.57 2.199-.57 1.222 0 2.281.407 2.932 1.14.652.733 1.059 1.792 1.059 3.176V15.8h-2.688V8.96c0-.815-.163-1.466-.57-1.874-.407-.407-.977-.651-1.791-.651-.815 0-1.466.244-1.955.733-.489.488-.733 1.221-.733 2.036V15.8h-2.606z" fill="#0D55A5"/>
</svg>
