<svg xmlns="http://www.w3.org/2000/svg" fill="none" viewBox="0 0 43 30">
  <path d="M42.186 2.606l-1.222-.489.326-.895-.814-.978-.082.163L39.5.081 39.58 0a5.96 5.96 0 00-.895.733l.977.407-.488 1.222-1.303-.652.326-.814a105.05 105.05 0 00-2.607 2.117l.652.57-.652.733-.651-.57.488-.57c-.488.407-1.058.815-1.628 1.303 1.466.652 2.85 1.629 3.99 2.77 2.362-1.874 4.235-3.34 5.05-3.991l-.652-.815v.163zm-4.642 2.688l-.896-.245.244-.896.896.245-.244.896zm3.339-1.466l-1.303-.326.326-1.303 1.303.326-.326 1.303zM27.853 9.12c-6.76 5.375-13.845 10.995-14.415 11.483-1.873 1.548-3.584 2.77-5.213 3.502-.081 0-.162.082-.244.082-2.606 2.036-5.05 3.909-7.981 4.805.977.326 2.036.488 3.176.57 5.457.407 9.203-2.2 13.275-5.375.57-.489 9.528-7.574 17.02-13.52-1.465-.977-3.257-1.547-5.293-1.547h-.326zm-6.923 8.39l-1.466-1.222 1.222-1.466 1.466 1.222-1.222 1.466zm1.222-3.095l.651-.733.733.652-.651.732-.733-.651zm1.791 2.687l-.977-.895.896-.978.977.896-.896.977zm1.385-2.687l-.977-.896.896-.977.977.896-.896.977z" fill="url(#MAiYDHbvcCa)"/>
  <defs>
    <linearGradient id="MAiYDHbvcCa" x1="4.221" y1="33.311" x2="38.914" y2="-1.382" gradientUnits="userSpaceOnUse">
      <stop offset=".07" stop-color="#2F7ABE"/>
      <stop offset=".25" stop-color="#72B4E0"/>
      <stop offset=".35" stop-color="#97D4F4"/>
      <stop offset=".39" stop-color="#8DCCEF"/>
      <stop offset=".45" stop-color="#75B7E3"/>
      <stop offset=".53" stop-color="#4D94CF"/>
      <stop offset=".62" stop-color="#1565B4"/>
      <stop offset=".65" stop-color="#0053AA"/>
      <stop offset=".99" stop-color="#97D4F4"/>
    </linearGradient>
  </defs>
</svg>
