<svg xmlns="http://www.w3.org/2000/svg" fill="none" viewBox="0 0 52 31">
  <path d="M43.082 10.017c-7.656 6.027-17.673 14.008-18.324 14.578-3.99 3.176-7.737 5.864-13.275 5.375A16.144 16.144 0 010 23.7c2.199 1.384 4.805 2.28 7.655 2.524 3.258.244 6.271-.407 8.877-1.71 1.71-.815 3.34-2.037 5.212-3.502.408-.326 4.805-3.828 9.855-7.819l-.244 1.059 1.791.489.489-1.792-1.303-.326c2.606-2.117 5.456-4.316 7.98-6.352.164.407.327.896.408 1.384l.733 2.932.652-.163.163-.081c.244-.163.488-.244.814-.326zm7.655-7.167l.489.652c-.244.163-.57.407-.896.733-.081 0-.163-.082-.244-.082h-.163c-.815-.244-1.71-.407-2.525-.407a6.6 6.6 0 00-1.792 0c-.162-.407-.325-.814-.57-1.14C46.502 1.384 47.724.49 48.294 0l1.629 2.036-.163.814.896.245.081-.245zm-1.71-.162l-.896-.245-.244.896.896.244.244-.895z" fill="url(#fuvOc3kQ6a)"/>
  <defs>
    <linearGradient id="fuvOc3kQ6a" x1="7.667" y1="31.538" x2="43.823" y2="-4.618" gradientUnits="userSpaceOnUse">
      <stop offset=".19" stop-color="#0053AA"/>
      <stop offset=".23" stop-color="#1565B4"/>
      <stop offset=".34" stop-color="#4D94CF"/>
      <stop offset=".43" stop-color="#75B7E3"/>
      <stop offset=".5" stop-color="#8DCCEF"/>
      <stop offset=".55" stop-color="#97D4F4"/>
      <stop offset=".68" stop-color="#72B4E0"/>
      <stop offset=".93" stop-color="#2F7ABE"/>
    </linearGradient>
  </defs>
</svg>
