<svg xmlns="http://www.w3.org/2000/svg" fill="none" viewBox="0 0 43 30">
  <path d="M25.002 11.483c1.14 1.059 1.955 2.525 2.28 4.072-5.456 4.398-10.342 8.307-10.831 8.714-3.99 3.176-7.737 5.864-13.275 5.375-1.059-.081-2.117-.244-3.176-.57 2.932-.896 5.375-2.687 7.981-4.805.082 0 .163-.081.244-.081 1.71-.815 3.34-2.036 5.213-3.502.57-.489 5.863-4.642 11.564-9.203zM42.593 2.77l.326.407c-.244.244-.651.57-1.14.896l-.245-.407-1.71.814.407.815a223.19 223.19 0 01-3.176 2.524l.489-.896-.977-.488-.489.977.896.489c-1.71 1.303-3.583 2.85-5.457 4.397-.57-1.466-1.303-2.85-2.361-4.072A920.637 920.637 0 0139.58 0l.407.814.733-.407 1.06 1.303-.326.163.57 1.222.57-.326zm-7.085 5.294l-.733-1.303-1.303.651.733 1.303 1.303-.651zm.651-2.28l-.651-.327-.326.652.652.326.325-.652zm1.955-.815l-.651-.896-.896.652.651.895.896-.651zm2.688-2.28l-.408-.815-.814.407.407.815.814-.407z" fill="url(#p_7WJ011ZHa)"/>
  <defs>
    <linearGradient id="p_7WJ011ZHa" x1="4.335" y1="33.319" x2="38.991" y2="-1.346" gradientUnits="userSpaceOnUse">
      <stop offset=".07" stop-color="#2F7ABE"/>
      <stop offset=".25" stop-color="#72B4E0"/>
      <stop offset=".35" stop-color="#97D4F4"/>
      <stop offset=".39" stop-color="#8DCCEF"/>
      <stop offset=".45" stop-color="#75B7E3"/>
      <stop offset=".53" stop-color="#4D94CF"/>
      <stop offset=".62" stop-color="#1565B4"/>
      <stop offset=".65" stop-color="#0053AA"/>
      <stop offset=".99" stop-color="#97D4F4"/>
    </linearGradient>
  </defs>
</svg>
